<svg width="426" height="427" xmlns="http://www.w3.org/2000/svg" xmlns:xlink="http://www.w3.org/1999/xlink" overflow="hidden"><defs><clipPath id="clip0"><rect x="361" y="136" width="426" height="427"/></clipPath></defs><g clip-path="url(#clip0)" transform="translate(-361 -136)"><path d="M35.5 88.75 35.5 337.25 390.5 337.25 390.5 88.75 35.5 88.75ZM219.213 243.619C215.662 247.169 210.338 247.169 206.787 243.619L75.4375 115.375 351.006 115.375 219.213 243.619ZM148.656 211.669 62.125 298.644 62.125 126.912 148.656 211.669ZM161.525 224.094 194.806 256.487C200.131 261.369 206.787 264.031 213.444 264.031 220.1 264.031 226.756 261.369 232.081 256.487L265.362 224.094 351.45 310.625 74.9938 310.625 161.525 224.094ZM277.344 211.669 363.875 127.356 363.875 298.2 277.344 211.669Z" transform="matrix(1 0 0 1.00235 361 136)"/></g></svg>